<?xml version="1.0" encoding="utf-8"?>
<!-- Generator: Adobe Illustrator 21.1.0, SVG Export Plug-In . SVG Version: 6.00 Build 0)  -->
<svg version="1.1" id="Layer_1" xmlns="http://www.w3.org/2000/svg" xmlns:xlink="http://www.w3.org/1999/xlink" x="0px" y="0px"
	 viewBox="0 0 662.1 165.4" style="enable-background:new 0 0 662.1 165.4;" xml:space="preserve">
<style type="text/css">
	.st0{fill:#006430;}
</style>
<g>
	<g>
		<path class="st0" d="M0.7,98.7c0-10.1,9.5-17.8,24.1-17.8c7,0,14.4,1.9,18.8,5.8c1.8,1.5,2.5,3.3,2.5,5.8c0,3.4-1.9,6.7-4.7,6.7
			c-1.8,0-3.3-1.4-5-3.1c-4.1-3.9-8.9-5.6-12.9-5.6c-5.2,0-9,2.5-9,6.7c0,14.1,34.5,12.7,34.5,35.9c0,5.9-2.1,10.9-6,14.6
			c-4.7,4.6-12.3,6.8-20,6.8c-7.5,0-15-2-20.3-6.1c-2.1-1.6-2.7-3.5-2.7-5.9c0-3.3,1.9-6.7,4.8-6.7c4.1,0,7.4,9.2,19.1,9.2
			c6.1,0,11.4-3.2,11.4-10.2C35.2,118.9,0.7,121,0.7,98.7"/>
		<path class="st0" d="M111.9,81.6c1.4,0,1.9,0.4,1.9,1.8v5.8c0,1.3-0.5,1.8-1.9,1.8h-8.8c-5.8,0-9.2-0.1-11.3-0.4V143
			c0,7.6,4,6.6,4,8.9c0,1.5-1.8,1.9-8.2,1.9h-5.2c-6.5,0-8.2-0.4-8.2-1.9c0-2.3,4-1.3,4-8.9V90.6c-2.1,0.2-5.5,0.4-11.3,0.4h-8.8
			c-1.4,0-1.9-0.5-1.9-1.8v-5.8c0-1.4,0.5-1.8,1.9-1.8C58.1,81.6,111.9,81.6,111.9,81.6z"/>
		<path class="st0" d="M141.9,142.9c0,7.6,4,6.6,4,8.9c0,1.5-1.8,1.9-8.2,1.9h-5.2c-6.5,0-8.2-0.4-8.2-1.9c0-2.3,4-1.3,4-8.9V92.4
			c0-7.6-4-6.6-4-8.9c0-1.5,1.8-1.9,8.2-1.9h5.2c6.5,0,8.2,0.4,8.2,1.9c0,2.3-4,1.3-4,8.9V142.9z"/>
		<path class="st0" d="M181.8,90h-3.9v27.6c16.2,0,21.4-5.3,21.4-14.2C199.3,92.9,192.1,90,181.8,90 M198.7,123.2l15.6,20.5
			c2.2,3.1,4.1,4.7,7.4,6.8c0.7,0.5,0.9,0.8,0.9,1.4c0,1.6-3.6,1.8-9.6,1.8c-6.7,0-8.1-0.9-11.3-5.2l-17-22.5h-6.8v16.9
			c0,7.6,4,6.6,4,8.9c0,1.5-1.8,1.9-8.2,1.9h-5.2c-6.5,0-8.2-0.4-8.2-1.9c0-2.3,4-1.3,4-8.9V92.4c0-7.6-4-6.6-4-8.9
			c0-1.5,1.8-1.9,8.2-1.9h9.4c10.9,0,18.4,1.1,23.2,3.2c6.8,3.1,12.2,8.5,12.2,18.3C213.4,114.1,208,119.6,198.7,123.2"/>
		<path class="st0" d="M277.5,144.4c1.4,0,1.9,0.4,1.9,1.8v5.8c0,1.3-0.5,1.8-1.9,1.8h-36.6c-6.5,0-8.2-0.4-8.2-1.9
			c0-2.3,4-1.3,4-8.9V92.5c0-7.6-4-6.6-4-8.9c0-1.5,1.8-1.9,8.2-1.9h5.2c6.5,0,8.2,0.4,8.2,1.9c0,2.3-4,1.3-4,8.9v52.4
			c2.1-0.2,5.5-0.4,11.3-0.4h15.9V144.4z"/>
		<path class="st0" d="M308.9,142.9c0,7.6,4,6.6,4,8.9c0,1.5-1.8,1.9-8.2,1.9h-5.2c-6.5,0-8.2-0.4-8.2-1.9c0-2.3,4-1.3,4-8.9V92.4
			c0-7.6-4-6.6-4-8.9c0-1.5,1.8-1.9,8.2-1.9h5.2c6.5,0,8.2,0.4,8.2,1.9c0,2.3-4,1.3-4,8.9V142.9z"/>
		<path class="st0" d="M379.8,129.7V92.4c0-7.6-4-6.6-4-8.9c0-1.5,1.8-1.9,8.2-1.9h2c6.5,0,8.2,0.4,8.2,1.9c0,2.3-4,1.3-4,8.9v59.2
			c0,1.5-0.7,2.1-4.1,2.1h-0.7c-3.1,0-3.5-0.4-4.8-2l-33.8-42.9c-1.6-2.1-3.6-4.7-4.8-6.3h-0.2v40.4c0,7.6,4,6.6,4,8.9
			c0,1.5-1.8,1.9-8.2,1.9h-2c-6.5,0-8.2-0.4-8.2-1.9c0-2.3,4-1.3,4-8.9V92.4c0-7.6-4-6.6-4-8.9c0-1.5,1.8-1.9,8.2-1.9h0.7
			c5.6,0,6.3,1.1,9.7,5.3l28.8,36.5c1.6,2.1,3.6,4.7,4.8,6.3L379.8,129.7L379.8,129.7z"/>
		<path class="st0" d="M441.3,90.6c-10.1,0-19.7,8.3-19.7,26.3c0,19.7,8.5,28.1,22.3,28.1c3.6,0,7-0.7,10.2-2v-13.6
			c0-4.2-0.8-5.5-2.8-7c-0.9-0.7-1.2-1.1-1.2-1.8c0-1.6,2.3-2,8.5-2h1.9c6.2,0,6.8,0.4,6.8,2.9v22.7c0,2.3-0.7,3.9-3.1,5.2
			c-6,3.3-13.9,5-21.8,5c-23.1,0-34.9-13.9-34.9-36.5c0-22,12.4-37,34.1-37c9,0,16.6,2.3,20.5,5.9c1.9,1.6,2.7,3.5,2.7,6.2
			c0,3.6-2,6.8-5,6.8C454.5,99.8,452.6,90.6,441.3,90.6"/>
	</g>
	<path class="st0" d="M662,90.6L662,90.6V83V0H518.9v83v7.6l0,0c0,0-0.1,0.6,0,1.8c0.1,1.3,0.3,3.2,0.8,5.7c0.7,3,1.9,6.9,4.2,11.3
		c0.4,0.8,0.9,1.7,1.4,2.6c1.9,3.4,4.3,7.1,7.4,11c0.5,0.6,0.9,1.2,1.4,1.8c2.4,2.8,5.1,5.7,8.2,8.7c0.9,0.8,1.8,1.6,2.7,2.5
		c10.4,9.4,25,19.4,45.4,29.4c20.4-10,35-20,45.4-29.4c0.9-0.8,1.8-1.7,2.7-2.5c3.1-3,5.8-5.9,8.2-8.7c0.5-0.6,1-1.2,1.4-1.8
		c3.1-3.9,5.6-7.6,7.4-10.9c0.5-0.9,0.9-1.7,1.4-2.6c2.2-4.5,3.5-8.3,4.2-11.3c0.6-2.5,0.8-4.4,0.8-5.7
		C662.1,91.2,662.1,90.6,662,90.6z M550.3,135.9c-5.1-4.3-9.6-8.8-13.4-13.3c1.5-1.1,3.2-2,6-2c3.6,0,5.3,1.4,7.2,3
		c2,1.6,4.3,3.5,8.7,3.5s6.7-1.8,8.7-3.5c1.6-1.3,3-2.5,5.5-2.8v12.7c-3.3,0.4-5.2,2-6.9,3.4c-2,1.6-3.7,3-7.2,3
		c-3.6,0-5.3-1.4-7.2-3C551.1,136.5,550.7,136.2,550.3,135.9z M590.5,161.4c-12.3-6.1-23.2-12.6-32.4-19.4c0.2,0,0.4,0,0.6,0
		c4.4,0,6.7-1.8,8.7-3.5c1.6-1.3,3-2.5,5.5-2.8v6.3l0.5,0.3c3.1,2,6.1,1.6,9,1.3c2.6-0.3,5.1-0.5,7.5,1l0.6,0.4l0.6-0.4
		c2.4-1.5,4.9-1.3,7.5-1c2.9,0.3,5.9,0.6,9-1.3l0.5-0.3v-6.3c2.4,0.4,3.9,1.5,5.5,2.8c2,1.6,4.3,3.5,8.7,3.5c0.2,0,0.4,0,0.6,0
		C613.6,148.8,602.8,155.3,590.5,161.4z M575.1,140.8V136v-0.4v-2.3v-12.7v-2.3l0,0l0,0c1.2,0.5,2.4,0.6,3.7,0.7
		c1.2,0,2.4-0.1,3.6-0.2c2.4-0.3,4.8-0.5,7,0.7v5.2v2.3v9v3.7v2.2c-1.1-0.4-2.2-0.6-3.4-0.7c-0.2,0-0.4,0-0.6,0
		c-1.1,0-2.2,0.1-3.3,0.2C579.7,141.7,577.4,142,575.1,140.8z M591.6,141.9v-2.2V136v-9v-2.3v-5.2c2.3-1.2,4.6-0.9,7-0.7
		c1.2,0.1,2.4,0.3,3.6,0.2c1.2,0,2.4-0.2,3.6-0.7l0,0l0,0v2.3v12.7v2.3v0.4v4.8c-2.3,1.2-4.6,0.9-7,0.7c-1.3-0.1-2.6-0.3-3.9-0.2
		C593.9,141.3,592.8,141.5,591.6,141.9z M630.7,135.9c-0.4,0.3-0.8,0.6-1.2,0.9c-2,1.6-3.7,3-7.2,3c-3.6,0-5.3-1.4-7.2-3
		c-1.7-1.4-3.6-2.9-6.9-3.4v-12.7c2.4,0.4,3.9,1.5,5.5,2.8c2,1.6,4.3,3.5,8.7,3.5s6.7-1.8,8.7-3.5c2-1.6,3.7-3,7.2-3
		c2.8,0,4.4,0.8,6,2C640.3,127.1,635.8,131.5,630.7,135.9z M651.1,113.1c-1.6,2.6-3.5,5.2-5.5,7.8c-1.7-1.3-3.9-2.5-7.4-2.5
		c-4.4,0-6.7,1.8-8.7,3.5c-2,1.6-3.7,3-7.2,3c-3.6,0-5.3-1.4-7.2-3c-1.7-1.4-3.6-2.9-6.9-3.4v-4l-1.1,0.7l-0.7,0.4
		c-2.4,1.5-4.9,1.3-7.5,1c-2.7-0.3-5.5-0.6-8.4,1c-2.9-1.6-5.7-1.3-8.4-1c-2.6,0.3-5.1,0.5-7.5-1l-0.7-0.4l-1.1-0.7v4
		c-3.3,0.4-5.2,2-6.9,3.4c-2,1.6-3.7,3-7.2,3c-3.6,0-5.3-1.4-7.2-3c-2-1.6-4.3-3.5-8.7-3.5c-3.5,0-5.7,1.2-7.4,2.5
		c-2.1-2.6-3.9-5.2-5.5-7.8c-0.2-0.4-0.5-0.8-0.7-1.1c3-0.5,4.8-2,6.4-3.3c2-1.6,3.7-3,7.2-3c3.6,0,5.3,1.4,7.2,3
		c2,1.6,4.3,3.5,8.7,3.5s6.7-1.8,8.7-3.5c2-1.6,3.7-3,7.2-3c3.6,0,5.3,1.4,7.2,3c2,1.6,4.3,3.5,8.7,3.5s6.7-1.8,8.7-3.5
		c2-1.6,3.7-3,7.2-3c3.6,0,5.3,1.4,7.2,3c2,1.6,4.3,3.5,8.7,3.5s6.7-1.8,8.7-3.5c2-1.6,3.7-3,7.2-3c3.6,0,5.3,1.4,7.2,3
		c1.6,1.3,3.4,2.8,6.4,3.3C651.6,112.3,651.3,112.7,651.1,113.1z M658.6,90.6v0.2v1.5c-0.1,1-0.2,2.6-0.7,4.7c-0.7,3-2,7.4-5,12.8
		c-2.9-0.2-4.4-1.5-6.2-2.9c-2-1.6-4.3-3.5-8.7-3.5s-6.7,1.8-8.7,3.5c-2,1.6-3.7,3-7.2,3c-3.6,0-5.3-1.4-7.2-3
		c-2-1.6-4.3-3.5-8.7-3.5s-6.7,1.8-8.7,3.5c-2,1.6-3.7,3-7.2,3c-3.6,0-5.3-1.4-7.2-3c-2-1.6-4.3-3.5-8.7-3.5s-6.7,1.8-8.7,3.5
		c-2,1.6-3.7,3-7.2,3c-3.6,0-5.3-1.4-7.2-3c-2-1.6-4.3-3.5-8.7-3.5s-6.7,1.8-8.7,3.5c-1.8,1.4-3.3,2.7-6.2,2.9
		c-2.9-5.4-4.3-9.8-5-12.8c-0.5-2.1-0.6-3.7-0.7-4.7v-1.5v-0.2V83c0-2.4,1.9-4.3,4.3-4.3s4.3,1.9,4.3,4.3v14h12.7V80.2
		c0-2.4,1.9-4.3,4.3-4.3c2.4,0,4.3,1.9,4.3,4.3V97h13V77.4c0-2.4,1.9-4.3,4.3-4.3c2.4,0,4.3,1.9,4.3,4.3V97h12.7V74.5
		c0-2.4,1.9-4.3,4.3-4.3c2.4,0,4.3,1.9,4.3,4.3V97h12.7V77.4c0-2.4,1.9-4.3,4.3-4.3s4.3,1.9,4.3,4.3V97h12.7V80.2
		c0-2.4,1.9-4.3,4.3-4.3c2.4,0,4.3,1.9,4.3,4.3V97h12.7V83c0-2.4,1.9-4.3,4.3-4.3c2.4,0,4.3,1.9,4.3,4.3L658.6,90.6L658.6,90.6z
		 M658.6,76.6c-1.2-0.8-2.7-1.3-4.3-1.3c-4.3,0-7.7,3.5-7.7,7.7v10.6h-5.9V80.2c0-4.3-3.5-7.7-7.7-7.7c-4.3,0-7.7,3.5-7.7,7.7v13.4
		h-5.9V77.4c0-4.3-3.5-7.7-7.7-7.7c-4.3,0-7.7,3.5-7.7,7.7v16.2h-5.9V74.5c0-4.3-3.5-7.7-7.7-7.7c-4.3,0-7.7,3.5-7.7,7.7v19.1h-5.8
		V77.4c0-4.3-3.5-7.7-7.7-7.7c-4.3,0-7.7,3.5-7.7,7.7v16.2h-5.9V80.2c0-4.3-3.5-7.7-7.7-7.7c-4.3,0-7.7,3.5-7.7,7.7v13.4h-5.9V83
		c0-4.3-3.5-7.7-7.7-7.7c-1.6,0-3.1,0.5-4.3,1.3v-3.5c20.5-11.9,44-18.1,68.2-18.1s47.7,6.3,68.2,18.1L658.6,76.6L658.6,76.6z
		 M584.1,17.5c0.8-0.1,1.7-0.1,2.6-0.2l1.6-0.1V14c1.5,0,2.9,0,4.4,0v3.2l1.6,0.1c0.9,0,1.8,0.1,2.6,0.2l1.8,0.2v-3.4
		c1.5,0.1,3.1,0.2,4.7,0.4v9.5c-4.3-0.3-8.6-0.5-12.9-0.5c-4.3,0-8.6,0.2-12.9,0.5v-9.5c1.6-0.1,3.1-0.3,4.7-0.4v3.4L584.1,17.5z
		 M578.6,27.5c4-0.3,7.9-0.4,11.9-0.4c3.9,0,7.9,0.1,11.8,0.4l-1.7,3.4l2.6,20.9c-4.2-0.4-8.5-0.6-12.7-0.6l0,0
		c-4.2,0-8.5,0.2-12.7,0.6l2.6-20.9L578.6,27.5z M658.6,69.8c-15.9-9-33.6-14.7-51.9-16.8l-2.6-21.5l2.7-5.3V11.6l-1.5-0.2
		c-2.7-0.3-5.5-0.5-8.2-0.6l-1.8-0.1l0,0h-0.9c-1.4,0-2.7-0.1-3.9-0.1c-1.3,0-2.6,0-4,0.1h-0.9l0,0l-1.8,0.1
		c-2.7,0.1-5.4,0.3-8.2,0.6l-1.5,0.2v14.6l2.7,5.3L574.2,53c-18.3,2.1-36,7.8-51.9,16.8V3.4h136.3L658.6,69.8L658.6,69.8z"/>
	<path class="st0" d="M625.3,41.9c2.6-0.3,5.1-0.5,7.5,1l0.6,0.4l0.6-0.4c2.4-1.5,4.9-1.3,7.5-1c2.9,0.3,5.9,0.6,9-1.3l0.5-0.3V12.6
		l-1.7,1.1c-2.4,1.5-4.9,1.3-7.5,1c-2.7-0.3-5.5-0.6-8.4,1c-2.9-1.6-5.7-1.3-8.4-1c-2.6,0.3-5.1,0.5-7.5-1l-1.7-1.1v27.6l0.5,0.3
		C619.4,42.5,622.4,42.2,625.3,41.9z M634.5,17.7c2.3-1.2,4.6-0.9,7-0.7c2.4,0.3,4.8,0.5,7.2-0.4V39c-2.3,1.2-4.6,0.9-7,0.7
		c-2.4-0.3-4.8-0.5-7.2,0.4V17.7z M618,16.5c2.5,1,4.9,0.7,7.2,0.4c2.4-0.3,4.8-0.5,7,0.7V40c-1.3-0.5-2.7-0.7-4-0.7
		c-1.1,0-2.2,0.1-3.3,0.2c-2.4,0.3-4.8,0.5-7-0.7L618,16.5L618,16.5z"/>
	<path class="st0" d="M620.1,22c1.8,1.1,3.5,0.9,5.1,0.8c1.5-0.2,2.8-0.3,4.2,0.5c0.1,0.1,0.2,0.1,0.4,0.1s0.5-0.1,0.6-0.3
		c0.2-0.3,0.1-0.8-0.2-1c-1.8-1.1-3.5-0.9-5.1-0.8c-1.5,0.2-2.8,0.3-4.2-0.5c-0.3-0.2-0.8-0.1-1,0.2C619.6,21.4,619.7,21.8,620.1,22
		z"/>
	<path class="st0" d="M620.1,28.2c1.8,1.1,3.5,0.9,5.1,0.8c1.5-0.2,2.8-0.3,4.2,0.5c0.1,0.1,0.2,0.1,0.4,0.1s0.5-0.1,0.6-0.3
		c0.2-0.3,0.1-0.8-0.2-1c-1.8-1.1-3.5-0.9-5.1-0.8c-1.5,0.2-2.8,0.3-4.2-0.5c-0.3-0.2-0.8-0.1-1,0.2C619.6,27.6,619.7,28,620.1,28.2
		z"/>
	<path class="st0" d="M625.2,35.2c1.5-0.2,2.8-0.3,4.2,0.5c0.1,0.1,0.2,0.1,0.4,0.1s0.5-0.1,0.6-0.3c0.2-0.3,0.1-0.8-0.2-1
		c-1.8-1.1-3.5-0.9-5.1-0.8c-1.5,0.2-2.8,0.3-4.2-0.5c-0.3-0.2-0.8-0.1-1,0.2s-0.1,0.8,0.2,1C621.8,35.6,623.6,35.4,625.2,35.2z"/>
	<path class="st0" d="M641.7,35.2c1.6,0.2,3.3,0.4,5.1-0.8c0.3-0.2,0.4-0.6,0.2-1c-0.2-0.3-0.6-0.4-1-0.2c-1.3,0.8-2.7,0.7-4.2,0.5
		c-1.6-0.2-3.3-0.4-5.1,0.8c-0.3,0.2-0.4,0.6-0.2,1c0.1,0.2,0.4,0.3,0.6,0.3c0.1,0,0.3,0,0.4-0.1C638.8,34.9,640.2,35.1,641.7,35.2z
		"/>
	<path class="st0" d="M637.1,29.7c0.1,0,0.3,0,0.4-0.1c1.3-0.8,2.7-0.7,4.2-0.5c1.6,0.2,3.3,0.4,5.1-0.8c0.3-0.2,0.4-0.6,0.2-1
		c-0.2-0.3-0.6-0.4-1-0.2c-1.3,0.8-2.7,0.7-4.2,0.5c-1.6-0.2-3.3-0.4-5.1,0.8c-0.3,0.2-0.4,0.6-0.2,1
		C636.6,29.5,636.9,29.7,637.1,29.7z"/>
	<path class="st0" d="M637.1,23.4c0.1,0,0.3,0,0.4-0.1c1.3-0.8,2.7-0.7,4.2-0.5c1.6,0.2,3.3,0.4,5.1-0.8c0.3-0.2,0.4-0.6,0.2-1
		c-0.2-0.3-0.6-0.4-1-0.2c-1.3,0.8-2.7,0.7-4.2,0.5c-1.6-0.2-3.3-0.4-5.1,0.8c-0.3,0.2-0.4,0.6-0.2,1
		C636.6,23.3,636.9,23.4,637.1,23.4z"/>
	<path class="st0" d="M540,41.9c2.6-0.3,5.1-0.5,7.5,1l0.6,0.4l0.6-0.4c2.4-1.5,4.9-1.3,7.5-1c2.9,0.3,5.9,0.6,9-1.3l0.5-0.3V12.6
		l-1.7,1.1c-2.4,1.5-4.9,1.3-7.5,1c-2.7-0.3-5.5-0.6-8.4,1c-2.9-1.6-5.7-1.3-8.4-1c-2.6,0.3-5.1,0.5-7.5-1l-1.7-1.1v27.6l0.5,0.3
		C534.1,42.5,537.1,42.2,540,41.9z M549.2,17.7c2.3-1.2,4.6-0.9,7-0.7c2.4,0.3,4.8,0.5,7.2-0.4V39c-2.3,1.2-4.6,0.9-7,0.7
		c-2.4-0.3-4.8-0.5-7.2,0.4V17.7z M532.7,16.5c2.5,1,4.9,0.7,7.2,0.4c2.4-0.3,4.8-0.5,7,0.7V40c-1.3-0.5-2.7-0.7-4-0.7
		c-1.1,0-2.2,0.1-3.3,0.2c-2.4,0.3-4.8,0.5-7-0.7L532.7,16.5L532.7,16.5z"/>
	<path class="st0" d="M534.8,22c1.8,1.1,3.5,0.9,5.1,0.8c1.5-0.2,2.8-0.3,4.2,0.5c0.1,0.1,0.2,0.1,0.4,0.1s0.5-0.1,0.6-0.3
		c0.2-0.3,0.1-0.8-0.2-1c-1.8-1.1-3.5-0.9-5.1-0.8c-1.5,0.2-2.8,0.3-4.2-0.5c-0.3-0.2-0.8-0.1-1,0.2C534.3,21.4,534.4,21.8,534.8,22
		z"/>
	<path class="st0" d="M534.8,28.2c1.8,1.1,3.5,0.9,5.1,0.8c1.5-0.2,2.8-0.3,4.2,0.5c0.1,0.1,0.2,0.1,0.4,0.1s0.5-0.1,0.6-0.3
		c0.2-0.3,0.1-0.8-0.2-1c-1.8-1.1-3.5-0.9-5.1-0.8c-1.5,0.2-2.8,0.3-4.2-0.5c-0.3-0.2-0.8-0.1-1,0.2C534.3,27.6,534.4,28,534.8,28.2
		z"/>
	<path class="st0" d="M539.9,35.2c1.5-0.2,2.8-0.3,4.2,0.5c0.1,0.1,0.2,0.1,0.4,0.1s0.5-0.1,0.6-0.3c0.2-0.3,0.1-0.8-0.2-1
		c-1.8-1.1-3.5-0.9-5.1-0.8c-1.5,0.2-2.8,0.3-4.2-0.5c-0.3-0.2-0.8-0.1-1,0.2s-0.1,0.8,0.2,1C536.5,35.6,538.3,35.4,539.9,35.2z"/>
	<path class="st0" d="M556.4,35.2c1.6,0.2,3.3,0.4,5.1-0.8c0.3-0.2,0.4-0.6,0.2-1c-0.2-0.3-0.6-0.4-1-0.2c-1.3,0.8-2.7,0.7-4.2,0.5
		c-1.6-0.2-3.3-0.4-5.1,0.8c-0.3,0.2-0.4,0.6-0.2,1c0.1,0.2,0.4,0.3,0.6,0.3c0.1,0,0.3,0,0.4-0.1C553.5,34.9,554.9,35.1,556.4,35.2z
		"/>
	<path class="st0" d="M551.8,29.7c0.1,0,0.3,0,0.4-0.1c1.3-0.8,2.7-0.7,4.2-0.5c1.6,0.2,3.3,0.4,5.1-0.8c0.3-0.2,0.4-0.6,0.2-1
		c-0.2-0.3-0.6-0.4-1-0.2c-1.3,0.8-2.7,0.7-4.2,0.5c-1.6-0.2-3.3-0.4-5.1,0.8c-0.3,0.2-0.4,0.6-0.2,1
		C551.3,29.5,551.6,29.7,551.8,29.7z"/>
	<path class="st0" d="M551.8,23.4c0.1,0,0.3,0,0.4-0.1c1.3-0.8,2.7-0.7,4.2-0.5c1.6,0.2,3.3,0.4,5.1-0.8c0.3-0.2,0.4-0.6,0.2-1
		c-0.2-0.3-0.6-0.4-1-0.2c-1.3,0.8-2.7,0.7-4.2,0.5c-1.6-0.2-3.3-0.4-5.1,0.8c-0.3,0.2-0.4,0.6-0.2,1
		C551.3,23.3,551.6,23.4,551.8,23.4z"/>
	<path class="st0" d="M593.9,42.5l-1.3-10.4c-0.7,0-1.4,0-2.1,0c-0.7,0-1.4,0-2.1,0l-1.3,10.4c1,0,2,0,3,0
		C591.4,42.5,592.6,42.5,593.9,42.5z"/>
	<path class="st0" d="M577.2,123.9c1.8,1.1,3.5,0.9,5.1,0.8c0.3,0,0.5-0.1,0.8-0.1c1.2-0.1,2.3-0.1,3.4,0.6c0.1,0.1,0.2,0.1,0.4,0.1
		s0.5-0.1,0.6-0.3s0.1-0.4,0.1-0.6c0-0.2-0.1-0.3-0.3-0.4c-0.7-0.5-1.5-0.7-2.2-0.8c-1-0.2-2,0-2.9,0.1c-0.2,0-0.4,0-0.7,0.1
		c-1.2,0.1-2.4,0.1-3.5-0.6c-0.3-0.2-0.8-0.1-1,0.2C576.7,123.2,576.8,123.7,577.2,123.9z"/>
	<path class="st0" d="M577.2,130.1c1.8,1.1,3.5,0.9,5.1,0.8c1.5-0.2,2.8-0.3,4.2,0.5c0.1,0.1,0.2,0.1,0.4,0.1s0.5-0.1,0.6-0.3
		c0.2-0.3,0.1-0.8-0.2-1c-1.8-1.1-3.5-0.9-5.1-0.8c-1.5,0.2-2.8,0.3-4.2-0.5c-0.3-0.2-0.8-0.1-1,0.2
		C576.7,129.4,576.8,129.9,577.2,130.1z"/>
	<path class="st0" d="M583.4,137c1-0.1,2,0,3,0.6c0.1,0.1,0.2,0.1,0.4,0.1s0.5-0.1,0.6-0.3c0.2-0.3,0.1-0.8-0.2-1s-0.5-0.3-0.8-0.4
		c-1.5-0.7-3-0.5-4.3-0.4c-0.1,0-0.2,0-0.3,0c-1.4,0.1-2.6,0.2-3.9-0.6c-0.3-0.2-0.8-0.1-1,0.2c-0.1,0.2-0.1,0.3-0.1,0.5
		c0,0.1,0,0.1,0.1,0.2c0.1,0.1,0.1,0.2,0.3,0.3c1,0.6,1.9,0.8,2.8,0.9c0.8,0,1.5,0,2.2-0.1C582.6,137,583,137,583.4,137z"/>
	<path class="st0" d="M597.5,137c0.4,0,0.8,0.1,1.2,0.1c0.7,0.1,1.5,0.2,2.3,0.1c0.9,0,1.9-0.3,2.8-0.9c0.1-0.1,0.2-0.2,0.3-0.3
		c0-0.1,0-0.1,0.1-0.2c0-0.2,0-0.3-0.1-0.5c-0.2-0.3-0.6-0.4-1-0.2c-1.2,0.8-2.5,0.7-3.9,0.6c-0.1,0-0.2,0-0.3,0
		c-1.3-0.1-2.8-0.3-4.3,0.4c-0.3,0.1-0.5,0.2-0.8,0.4s-0.4,0.6-0.2,1c0.1,0.2,0.4,0.3,0.6,0.3c0.1,0,0.3,0,0.4-0.1
		C595.5,137,596.5,136.9,597.5,137z"/>
	<path class="st0" d="M594.2,131.5c0.1,0,0.3,0,0.4-0.1c1.3-0.8,2.7-0.7,4.2-0.5c1.6,0.2,3.3,0.4,5.1-0.8c0.3-0.2,0.4-0.6,0.2-1
		c-0.2-0.3-0.6-0.4-1-0.2c-1.3,0.8-2.7,0.7-4.2,0.5c-1.6-0.2-3.3-0.4-5.1,0.8c-0.3,0.2-0.4,0.6-0.2,1
		C593.7,131.4,593.9,131.5,594.2,131.5z"/>
	<path class="st0" d="M594.2,125.3c0.1,0,0.3,0,0.4-0.1c1.1-0.7,2.2-0.7,3.4-0.6c0.3,0,0.5,0,0.8,0.1c1.6,0.2,3.3,0.4,5.1-0.8
		c0.3-0.2,0.4-0.6,0.2-1c-0.2-0.3-0.6-0.4-1-0.2c-1.1,0.7-2.3,0.7-3.5,0.6c-0.2,0-0.4,0-0.7-0.1c-0.9-0.1-1.9-0.2-2.9-0.1
		c-0.7,0.1-1.5,0.3-2.2,0.8c-0.2,0.1-0.3,0.3-0.3,0.4c0,0.2,0,0.4,0.1,0.6C593.7,125.2,593.9,125.3,594.2,125.3z"/>
	<g>
		<path class="st0" d="M424.5,56.8c-2.1,0-4.2-0.3-6.1-1.2c-3.2-1.5-5.3-4-6.2-7.5c-0.7-2.5-0.7-5-0.3-7.6c0.4-3.1,1.5-6,3.3-8.6
			c2.6-3.8,6.2-6.1,10.8-7c2.8-0.6,5.6-0.5,8.3,0.5c3.8,1.4,6.2,4.1,7.3,8c0.6,2.1,0.6,4.2,0.4,6.3c-0.3,2.9-1.1,5.7-2.5,8.3
			c-3,5.1-7.4,8.1-13.3,8.7C425.6,56.8,425,56.8,424.5,56.8z M419.1,44.6c0.1,0.6,0.1,1.6,0.3,2.6c0.3,1.6,1,2.9,2.4,3.8
			c2.1,1.4,5.4,1.1,7.4-0.5c1.6-1.3,2.7-2.8,3.5-4.6c1-2.1,1.5-4.3,1.7-6.6c0.2-1.7,0.2-3.4-0.2-5.1c-0.3-1.3-0.8-2.4-1.8-3.3
			c-2.1-1.6-4.4-1.6-6.6-0.6c-1.9,0.9-3.2,2.4-4.2,4.3C419.8,37.5,419.2,40.7,419.1,44.6z M458,29.7c0.2,0,6.6,0,7.6,0
			c0.8,0,1-0.2,1.2-1s0.3-1.6,0.4-2.3c0.2-1.1,0.1-1.3-1.1-1.3c-2.4,0-4.2,0-6.6,0c-0.1,0-0.7,0.1-0.9-0.3c-0.2-0.3-0.1-1,0-1.5
			c0.9-5.3,1.2-6.7,3.2-7.4c2.7-0.8,5.8,1,6.6,1.2c0.6,0.2,1,0,1.2-0.6c0.3-0.7,0.5-1.6,0.7-2.3c0.2-0.8-0.1-1.3-0.8-1.8
			c-0.4-0.2-0.8-0.4-1.2-0.5c-2.8-0.9-5.4-1.2-8.6-0.4c-1.2,0.3-2.8,1-4.4,2.5c-2.6,2.4-2.9,4.6-3.6,9.2c-0.1,1-0.3,1.9-0.3,1.9
			s-2.4,0-3.6,0c-0.2,0-0.4,0-0.7,0c-0.4,0.1-0.7,0.3-0.8,0.7c-0.2,1.1-0.4,2.1-0.6,3.2c-0.1,0.5,0.1,0.7,0.6,0.7
			c0.3,0,0.5,0.1,0.8,0.1h3.7h1.1"/>
		<path class="st0" d="M458,29.5c-0.9,12.3-2.2,21.5-2.8,24.8c-0.3,1.6-0.6,3.3-1.7,5.6c-0.7,1.4-1,2-1.8,3
			c-1.9,2.4-7.1,4.1-9.9,3.7c-0.5-0.1-1.3-0.1-1.6-0.9c-0.2-0.4-0.1-1.1,0.1-1.4c0.8-1.2,2.6-0.4,4-0.7c3.3-0.8,4.2-8.3,4.4-10.2
			c0.9-8,1.7-16.2,2.4-24.6L458,29.5z"/>
	</g>
	<g>
		<path class="st0" d="M7.7,11.5c3.9,0,4.2,0.2,4.2,1.8v28.3c0,3.7,0.4,5.9,2.1,7.2c1.5,1.2,3.8,1.8,7,1.8c3.1,0,5.2-0.6,6.6-1.8
			c1.8-1.5,2.3-3.7,2.3-7.2V13.3c0-1.6,0.2-1.8,4.1-1.8s4.1,0.2,4.1,1.8v28.9c0,4.4-0.9,7.8-3.7,10.5c-3,2.8-7.3,4.1-13.3,4.1
			c-6.2,0-10.8-1.3-13.7-4c-3-2.8-4-6.4-4-10.6v-24c0-4.8-2.5-4.1-2.5-5.6c0-1,1.1-1.2,5.1-1.2L7.7,11.5L7.7,11.5z"/>
		<path class="st0" d="M81.2,41.5V18.2c0-4.8-2.5-4.1-2.5-5.6c0-1,1.1-1.2,5.1-1.2H85c4,0,5.1,0.2,5.1,1.2c0,1.5-2.5,0.8-2.5,5.6
			v36.9c0,1-0.4,1.3-2.6,1.3h-0.4c-1.9,0-2.2-0.2-3-1.2l-21-26.7c-1-1.3-2.3-2.9-3-4h-0.1v25.2c0,4.8,2.5,4.1,2.5,5.6
			c0,1-1.1,1.2-5.1,1.2h-1.2c-4,0-5.1-0.2-5.1-1.2c0-1.5,2.5-0.8,2.5-5.6V18.2c0-4.8-2.5-4.1-2.5-5.6c0-1,1.1-1.2,5.1-1.2h0.4
			c3.5,0,4,0.7,6.1,3.3l17.9,22.8C79.1,38.8,80.4,40.4,81.2,41.5L81.2,41.5z"/>
		<path class="st0" d="M110.4,49.7c0,4.8,2.5,4.1,2.5,5.6c0,1-1.1,1.2-5.1,1.2h-3.2c-4,0-5.1-0.2-5.1-1.2c0-1.5,2.5-0.8,2.5-5.6
			V18.2c0-4.8-2.5-4.1-2.5-5.6c0-1,1.1-1.2,5.1-1.2h3.2c4,0,5.1,0.2,5.1,1.2c0,1.5-2.5,0.8-2.5,5.6L110.4,49.7L110.4,49.7z"/>
		<path class="st0" d="M153.1,19c0.4-1,0.7-1.9,0.7-2.6c0-0.9-0.4-1.6-1.2-2.4c-0.6-0.5-0.8-0.8-0.8-1.2c0-1.1,1-1.2,6.3-1.2
			c5.2,0,6.3,0.1,6.3,1.2c0,0.4-0.2,0.7-0.7,1.1c-1.9,1.5-2.9,2.9-3.7,5.1l-13.6,35.7c-0.6,1.6-1.3,1.8-2.4,1.8h-1.2
			c-1.1,0-1.8-0.2-2.4-1.8l-14.9-36.8c-1-2.3-2.2-3.3-4-4.2c-0.6-0.3-0.7-0.7-0.7-1c0-1.1,2.3-1.2,5.9-1.2c4.8,0,5.9,0.6,7.4,4.5
			l6.1,15.5c1.1,2.7,3.1,7.9,4.4,11.2h0.1c1.4-4.1,2.4-7,4-11.2L153.1,19z"/>
		<path class="st0" d="M183,50.9c1.3-0.1,3.4-0.2,7-0.2h11.6c0.9,0,1.2,0.2,1.2,1.1v3.6c0,0.8-0.3,1.1-1.2,1.1h-24.5
			c-4,0-5.1-0.2-5.1-1.2c0-1.5,2.5-0.8,2.5-5.6V18.2c0-4.8-2.5-4.1-2.5-5.6c0-1,1.1-1.2,5.1-1.2h23.8c0.9,0,1.2,0.2,1.2,1.1v3.6
			c0,0.8-0.3,1.1-1.2,1.1H190c-3.6,0-5.7-0.1-7-0.2v13.3h14.7c0.9,0,1.2,0.2,1.2,1.1v3.4c0,0.8-0.3,1.1-1.2,1.1H183V50.9z"/>
		<path class="st0" d="M234.9,37.4l9.7,12.8c1.4,1.9,2.6,2.9,4.6,4.2c0.4,0.3,0.6,0.5,0.6,0.9c0,1-2.3,1.1-6,1.1
			c-4.2,0-5.1-0.6-7-3.2l-10.6-14.1H222v10.6c0,4.8,2.5,4.1,2.5,5.6c0,1-1.1,1.2-5.1,1.2h-3.2c-4,0-5.1-0.2-5.1-1.2
			c0-1.5,2.5-0.8,2.5-5.6V18.2c0-4.8-2.5-4.1-2.5-5.6c0-1,1.1-1.2,5.1-1.2h5.9c6.8,0,11.5,0.7,14.5,2c4.2,1.9,7.6,5.3,7.6,11.4
			C244.1,31.8,240.7,35.2,234.9,37.4z M224.4,16.8H222V34c10.1,0,13.3-3.3,13.3-8.9C235.3,18.5,230.8,16.8,224.4,16.8z"/>
		<path class="st0" d="M256.3,22.2c0-6.3,5.9-11.1,15-11.1c4.4,0,9,1.2,11.7,3.6c1.1,1,1.5,2,1.5,3.6c0,2.1-1.2,4.2-2.9,4.2
			c-1.1,0-2-0.9-3.1-1.9c-2.6-2.4-5.6-3.5-8.1-3.5c-3.2,0-5.6,1.5-5.6,4.2c0,8.8,21.5,7.9,21.5,22.4c0,3.7-1.3,6.8-3.7,9.1
			c-2.9,2.9-7.7,4.2-12.4,4.2c-4.7,0-9.4-1.2-12.7-3.8c-1.3-1-1.7-2.2-1.7-3.7c0-2,1.2-4.2,3-4.2c2.6,0,4.6,5.7,11.9,5.7
			c3.8,0,7.1-2,7.1-6.4C277.8,34.8,256.3,36.1,256.3,22.2z"/>
		<path class="st0" d="M305,49.7c0,4.8,2.5,4.1,2.5,5.6c0,1-1.1,1.2-5.1,1.2h-3.2c-4,0-5.1-0.2-5.1-1.2c0-1.5,2.5-0.8,2.5-5.6V18.2
			c0-4.8-2.5-4.1-2.5-5.6c0-1,1.1-1.2,5.1-1.2h3.2c4,0,5.1,0.2,5.1,1.2c0,1.5-2.5,0.8-2.5,5.6V49.7z"/>
		<path class="st0" d="M350,11.5c0.9,0,1.2,0.2,1.2,1.1v3.6c0,0.8-0.3,1.1-1.2,1.1h-5.5c-3.6,0-5.7-0.1-7-0.2v32.6
			c0,4.8,2.5,4.1,2.5,5.6c0,1-1.1,1.2-5.1,1.2h-3.2c-4,0-5.1-0.2-5.1-1.2c0-1.5,2.5-0.8,2.5-5.6V17.1c-1.3,0.1-3.4,0.2-7,0.2h-5.5
			c-0.9,0-1.2-0.3-1.2-1.1v-3.6c0-0.9,0.3-1.1,1.2-1.1C316.6,11.5,350,11.5,350,11.5z"/>
		<path class="st0" d="M399.6,12.7c0,0.4-0.2,0.7-0.7,1.1c-1.8,1.5-2.9,2.9-4,5.1l-11.8,23v7.8c0,4.8,2.5,4.1,2.5,5.6
			c0,1-1.1,1.2-5.1,1.2h-3.2c-4,0-5.1-0.2-5.1-1.2c0-1.5,2.5-0.8,2.5-5.6v-7.9l-12.2-23.9c-1.1-2.2-2.3-3.3-4-4.2
			c-0.6-0.3-0.7-0.7-0.7-1c0-1.1,2.2-1.2,5.9-1.2c4.8,0,5.9,0.8,7.7,4.5l3.5,7c1.8,3.5,3.7,7.5,5.4,11.1h0.1c1.5-3.2,3.4-7,5.6-11.1
			l2.1-4.1c0.5-1,0.8-1.9,0.8-2.6c0-0.9-0.4-1.6-1.2-2.4c-0.6-0.5-0.8-0.8-0.8-1.2c0-1.1,1-1.2,6.4-1.2
			C398.4,11.5,399.6,11.7,399.6,12.7z"/>
	</g>
</g>
</svg>
